<?xml version="1.0" encoding="UTF-8" standalone="no"?>
<svg
   t="1780225848424"
   class="icon"
   viewBox="0 0 1024 1024"
   version="1.1"
   p-id="68211"
   width="128"
   height="128"
   id="svg2"
   sodipodi:docname="category-remove-special-chars-line.svg"
   inkscape:version="1.4.3 (0d15f75, 2025-12-25)"
   xmlns:inkscape="http://www.inkscape.org/namespaces/inkscape"
   xmlns:sodipodi="http://sodipodi.sourceforge.net/DTD/sodipodi-0.dtd"
   xmlns="http://www.w3.org/2000/svg"
   xmlns:svg="http://www.w3.org/2000/svg">
  <defs
     id="defs2" />
  <sodipodi:namedview
     id="namedview2"
     pagecolor="#ffffff"
     bordercolor="#000000"
     borderopacity="0.25"
     inkscape:showpageshadow="2"
     inkscape:pageopacity="0.0"
     inkscape:pagecheckerboard="0"
     inkscape:deskcolor="#d1d1d1"
     inkscape:zoom="8.8828125"
     inkscape:cx="63.943712"
     inkscape:cy="64"
     inkscape:window-width="2560"
     inkscape:window-height="1351"
     inkscape:window-x="-9"
     inkscape:window-y="-9"
     inkscape:window-maximized="1"
     inkscape:current-layer="svg2" />
  <path
     d="m 910.56293,514.96485 c 0.093,-0.99054 0.0727,-1.97262 0.0787,-2.96485 -0.006,-0.99223 0.0152,-1.97431 -0.0787,-2.96485 -0.13788,-1.68841 -0.44833,-3.34043 -0.83659,-4.99077 -0.0711,-0.28676 -0.11081,-0.57521 -0.19033,-0.86112 a 33.461826,33.461826 0 0 0 -8.05036,-14.5096 L 786.95008,342.07368 c -11.50584,-14.7253 -32.76904,-17.33658 -47.49434,-5.83243 -14.7253,11.50583 -17.33573,32.76904 -5.83159,47.49434 l 73.77539,94.4287 H 440.33452 c -18.68746,0 -33.83571,15.14825 -33.83571,33.83571 0,18.68662 15.14825,33.83571 33.83571,33.83571 h 367.06502 l -73.77539,94.42786 c -11.50499,14.7253 -8.89456,35.98935 5.83159,47.49349 14.72614,11.50414 35.98935,8.89456 47.49434,-5.83158 L 901.48819,535.32211 a 33.476206,33.476206 0 0 0 8.04698,-14.50537 c 0.0795,-0.28676 0.12011,-0.5769 0.19201,-0.86366 0.38742,-1.64949 0.69702,-3.30067 0.83575,-4.98823 z"
     fill="#111111"
     p-id="68212"
     id="path1"
     style="stroke-width:0.848;stroke-dasharray:none" />
  <path
     d="m 394.32797,810.45477 h -83.58235 c -49.7114,0 -90.01175,-40.30035 -90.01175,-90.01176 V 308.96069 c 0,-49.71221 40.30035,-90.01176 90.01175,-90.01176 h 83.58235 c 17.75483,0 32.14706,-14.39304 32.14706,-32.14706 0,-17.75481 -14.39223,-32.14705 -32.14706,-32.14705 h -83.58235 c -85.22104,0 -154.30586,69.08482 -154.30586,154.30587 v 411.48232 c 0,85.22024 69.08482,154.30587 154.30586,154.30587 h 83.58235 c 17.75483,0 32.14706,-14.39304 32.14706,-32.14705 0,-17.75483 -14.39223,-32.14706 -32.14706,-32.14706 z"
     fill="#111111"
     p-id="68213"
     id="path2"
     style="stroke-width:0.803676" />
</svg>
